<svg width="256" height="256" viewBox="0 0 256 256" xmlns="http://www.w3.org/2000/svg" role="img" aria-label="JARVIS logo">
  <title>JARVIS</title>
  <!-- badge -->
  <circle cx="128" cy="128" r="116" fill="#0B1220" stroke="#164E63" stroke-width="2"/>
  <!-- tick marks -->
  <g stroke="#22D3EE" stroke-width="3" stroke-linecap="round">
    <line x1="128" y1="18" x2="128" y2="28" transform="rotate(0 128 128)"/>
    <line x1="128" y1="18" x2="128" y2="28" transform="rotate(30 128 128)"/>
    <line x1="128" y1="18" x2="128" y2="28" transform="rotate(60 128 128)"/>
    <line x1="128" y1="18" x2="128" y2="28" transform="rotate(90 128 128)"/>
    <line x1="128" y1="18" x2="128" y2="28" transform="rotate(120 128 128)"/>
    <line x1="128" y1="18" x2="128" y2="28" transform="rotate(150 128 128)"/>
    <line x1="128" y1="18" x2="128" y2="28" transform="rotate(180 128 128)"/>
    <line x1="128" y1="18" x2="128" y2="28" transform="rotate(210 128 128)"/>
    <line x1="128" y1="18" x2="128" y2="28" transform="rotate(240 128 128)"/>
    <line x1="128" y1="18" x2="128" y2="28" transform="rotate(270 128 128)"/>
    <line x1="128" y1="18" x2="128" y2="28" transform="rotate(300 128 128)"/>
    <line x1="128" y1="18" x2="128" y2="28" transform="rotate(330 128 128)"/>
  </g>
  <!-- concentric rings -->
  <circle cx="128" cy="128" r="90" fill="none" stroke="#22D3EE" stroke-width="3"/>
  <circle cx="128" cy="128" r="70" fill="none" stroke="#0891B2" stroke-width="2"/>
  <!-- J monogram -->
  <g fill="none" stroke="#67E8F9" stroke-width="15" stroke-linecap="round">
    <path d="M104 88 L158 88"/>
    <path d="M154 88 V142 a28 28 0 0 1 -56 0"/>
  </g>
</svg>
